<?xml version="1.0" encoding="UTF-8"?> <svg xmlns="http://www.w3.org/2000/svg" width="99" height="99" viewBox="0 0 99 99" fill="none"> <path d="M49.312 0C22.078 0 0 22.078 0 49.312C0 76.546 22.078 98.624 49.312 98.624C76.546 98.624 98.624 76.546 98.624 49.312C98.624 22.078 76.546 0 49.312 0ZM63.8 28.265C61.456 28.265 59.097 28.265 56.754 28.265C55.271 28.169 53.741 29.301 53.47 30.784C53.438 33.351 53.454 35.917 53.454 38.484C56.897 38.5 60.341 38.484 63.785 38.5C63.53 42.214 63.068 45.913 62.526 49.58C59.481 49.612 56.436 49.58 53.391 49.596C53.359 60.548 53.407 71.484 53.375 82.437C48.847 82.453 44.336 82.421 39.808 82.453C39.728 71.501 39.808 60.549 39.76 49.596C37.56 49.58 35.344 49.612 33.144 49.58C33.16 45.897 33.144 42.215 33.144 38.548C35.344 38.516 37.56 38.548 39.76 38.532C39.824 34.961 39.696 31.374 39.824 27.803C40.063 24.949 41.131 22.096 43.252 20.135C45.819 17.696 49.453 16.867 52.897 16.771C56.532 16.739 60.167 16.755 63.801 16.755C63.816 20.597 63.816 24.423 63.8 28.265Z" fill="#FF5500"></path> </svg> 