<?xml version="1.0" encoding="UTF-8"?> <svg xmlns="http://www.w3.org/2000/svg" width="99" height="99" viewBox="0 0 99 99" fill="none"> <path d="M37.717 0H11.774C5.282 0 0 5.282 0 11.774V37.955C0 44.447 5.282 49.729 11.774 49.729H37.717C44.209 49.729 49.491 44.447 49.491 37.955V11.774C49.491 5.282 44.209 0 37.717 0ZM24.795 40.541C15.995 40.541 8.836 33.458 8.836 24.752C8.836 16.046 15.996 8.963 24.795 8.963C33.594 8.963 40.754 16.046 40.754 24.752C40.754 33.458 33.595 40.541 24.795 40.541ZM41.038 12.072C38.964 12.072 37.283 10.391 37.283 8.317C37.283 6.243 38.964 4.562 41.038 4.562C43.112 4.562 44.793 6.243 44.793 8.317C44.793 10.391 43.112 12.072 41.038 12.072Z" transform="translate(24.444 24.47)" fill="#FF5500"></path> <path d="M49.312 0C22.078 0 0 22.078 0 49.312C0 76.546 22.078 98.624 49.312 98.624C76.546 98.624 98.624 76.546 98.624 49.312C98.624 22.078 76.546 0 49.312 0ZM79.759 62.425C79.759 72.129 71.864 80.023 62.161 80.023H36.218C26.514 80.023 18.62 72.128 18.62 62.425V36.244C18.62 26.54 26.515 18.646 36.218 18.646H62.161C71.865 18.646 79.759 26.541 79.759 36.244V62.425Z" fill="#FF5500"></path> <path d="M10.146 0C4.551 0 0 4.475 0 9.976C0 15.477 4.551 19.952 10.146 19.952C15.741 19.952 20.292 15.477 20.292 9.976C20.292 4.475 15.741 0 10.146 0Z" transform="translate(39.093 39.2461)" fill="#FF5500"></path> </svg> 