<?xml version="1.0" encoding="UTF-8" standalone="no"?> <!-- Generator: Gravit.io --> <svg xmlns="http://www.w3.org/2000/svg" xmlns:xlink="http://www.w3.org/1999/xlink" style="isolation:isolate" viewBox="0 0 100 100" width="100" height="100"> <defs> <clipPath id="_clipPath_AygmDGt27xksGBCJ4rNwAUDa83fFbLBJ"> <rect width="100" height="100"></rect> </clipPath> </defs> <g clip-path="url(#_clipPath_AygmDGt27xksGBCJ4rNwAUDa83fFbLBJ)"> <path d=" M 78.9 42.088 C 69.582 34.357 59.854 30.271 50.767 30.271 C 26.634 30.271 8.863 52.833 8.118 53.794 C 7.612 54.446 7.731 55.386 8.383 55.892 C 9.035 56.398 9.977 56.281 10.482 55.628 C 10.656 55.403 28.118 33.264 50.767 33.264 C 71.112 33.264 87.734 55.378 87.899 55.601 C 88.193 55.997 88.644 56.206 89.102 56.206 C 89.412 56.206 89.724 56.111 89.992 55.912 C 90.655 55.421 90.796 54.484 90.304 53.82 C 90.126 53.58 85.872 47.873 78.9 42.088 Z " fill="rgb(255,85,0)"></path> <path d=" M 48.739 19.759 C 48.718 18.946 48.053 18.301 47.245 18.301 C 47.231 18.301 47.218 18.301 47.205 18.302 C 21.667 18.972 2.961 40.604 2.176 41.525 C 1.641 42.155 1.716 43.098 2.345 43.634 C 2.626 43.873 2.972 43.991 3.315 43.991 C 3.739 43.991 4.159 43.811 4.455 43.465 C 4.639 43.25 23.101 21.926 47.284 21.292 C 48.109 21.272 48.761 20.585 48.739 19.759 Z " fill="rgb(255,85,0)"></path> <path d=" M 52.51 21.355 C 54.72 21.471 56.975 21.76 59.21 22.211 C 59.311 22.231 59.409 22.24 59.508 22.24 C 60.205 22.24 60.829 21.751 60.974 21.04 C 61.137 20.23 60.613 19.44 59.802 19.277 C 57.424 18.797 55.023 18.49 52.668 18.365 C 51.859 18.336 51.14 18.956 51.095 19.781 C 51.05 20.606 51.685 21.311 52.51 21.355 Z " fill="rgb(255,85,0)"></path> <path d=" M 65.753 23.994 C 67.845 24.712 69.964 25.583 72.052 26.581 C 72.259 26.68 72.48 26.726 72.696 26.726 C 73.255 26.726 73.791 26.413 74.047 25.874 C 74.403 25.129 74.088 24.235 73.342 23.879 C 71.151 22.832 68.924 21.918 66.724 21.162 C 65.942 20.896 65.09 21.31 64.823 22.092 C 64.556 22.874 64.972 23.726 65.753 23.994 Z " fill="rgb(255,85,0)"></path> <path d=" M 78.057 29.839 C 79.973 31.005 81.885 32.293 83.743 33.666 C 84.011 33.863 84.322 33.959 84.631 33.959 C 85.089 33.959 85.542 33.75 85.835 33.353 C 86.326 32.688 86.187 31.752 85.522 31.26 C 83.593 29.833 81.605 28.496 79.614 27.284 C 78.909 26.855 77.987 27.077 77.557 27.784 C 77.127 28.49 77.352 29.41 78.057 29.839 Z " fill="rgb(255,85,0)"></path> <path d=" M 96.21 40.756 C 96.136 40.669 94.316 38.606 91.059 35.736 C 90.439 35.186 89.492 35.25 88.948 35.868 C 88.401 36.489 88.461 37.433 89.08 37.98 C 92.181 40.712 93.945 42.71 93.963 42.731 C 94.259 43.067 94.672 43.24 95.088 43.24 C 95.438 43.24 95.791 43.117 96.074 42.868 C 96.694 42.321 96.755 41.377 96.21 40.756 Z " fill="rgb(255,85,0)"></path> <path d=" M 49.507 42.101 C 39.329 42.101 31.048 50.377 31.048 60.551 C 31.048 70.728 39.329 79.008 49.507 79.008 C 59.68 79.008 67.956 70.728 67.956 60.551 C 67.956 50.377 59.68 42.101 49.507 42.101 Z M 49.507 76.016 C 40.979 76.016 34.041 69.078 34.041 60.551 C 34.041 52.027 40.979 45.093 49.507 45.093 C 58.03 45.093 64.964 52.027 64.964 60.551 C 64.964 69.078 58.03 76.016 49.507 76.016 Z " fill="rgb(255,85,0)"></path> <path d=" M 49.502 54.071 C 45.927 54.071 43.018 56.98 43.018 60.555 C 43.018 64.13 45.927 67.038 49.502 67.038 C 53.077 67.038 55.986 64.13 55.986 60.555 C 55.986 56.98 53.077 54.071 49.502 54.071 Z M 49.502 64.046 C 47.577 64.046 46.011 62.48 46.011 60.555 C 46.011 58.629 47.577 57.063 49.502 57.063 C 51.427 57.063 52.994 58.629 52.994 60.555 C 52.994 62.48 51.427 64.046 49.502 64.046 Z " fill="rgb(255,85,0)"></path> </g> </svg> 