<?xml version="1.0" encoding="UTF-8" standalone="no"?> <!-- Generator: Gravit.io --> <svg xmlns="http://www.w3.org/2000/svg" xmlns:xlink="http://www.w3.org/1999/xlink" style="isolation:isolate" viewBox="0 0 100 100" width="100" height="100"> <defs> <clipPath id="_clipPath_Qx8r86NrFNltREvMpwUcfEDlPbSer5Rq"> <rect width="100" height="100"></rect> </clipPath> </defs> <g clip-path="url(#_clipPath_Qx8r86NrFNltREvMpwUcfEDlPbSer5Rq)"> <g id="Group"> <path d=" M 40.679 37.08 C 31.085 37.08 23.279 44.885 23.279 54.479 C 23.279 64.073 31.085 71.878 40.679 71.878 C 50.273 71.878 58.078 64.073 58.078 54.479 C 58.078 44.885 50.273 37.08 40.679 37.08 Z M 40.679 68.889 C 32.733 68.889 26.269 62.425 26.269 54.479 C 26.269 46.533 32.733 40.069 40.679 40.069 C 48.624 40.069 55.088 46.533 55.088 54.479 C 55.088 62.425 48.624 68.889 40.679 68.889 Z " fill="rgb(255,85,0)"></path> <path d=" M 49.308 52.982 C 45.375 52.982 42.175 49.783 42.175 45.85 C 42.175 45.024 41.507 44.355 40.681 44.355 C 35.099 44.355 30.559 48.896 30.559 54.477 C 30.559 60.061 35.099 64.603 40.681 64.603 C 46.262 64.603 50.803 60.06 50.803 54.477 C 50.803 53.652 50.134 52.982 49.308 52.982 Z M 40.681 61.614 C 36.748 61.614 33.548 58.412 33.548 54.477 C 33.548 51.01 36.034 48.114 39.316 47.475 C 40.011 51.757 43.401 55.148 47.683 55.841 C 47.044 59.127 44.147 61.614 40.681 61.614 Z " fill="rgb(255,85,0)"></path> <path d=" M 96.368 37.954 C 95.597 37.674 94.735 38.071 94.453 38.847 C 91.218 47.736 81.004 52.057 77.724 53.239 C 76.573 51.824 74.039 48.877 70.43 45.623 C 74.867 43.889 84.493 39.163 87.89 29.831 C 88.172 29.054 87.772 28.196 86.997 27.914 C 86.226 27.632 85.364 28.032 85.082 28.807 C 81.642 38.256 70.32 42.542 67.823 43.385 C 65.263 41.298 62.671 39.508 60.069 38.019 C 64.092 35.379 72.441 28.818 73.856 19.059 C 73.974 18.242 73.408 17.483 72.59 17.365 C 71.775 17.243 71.016 17.813 70.897 18.629 C 69.459 28.549 59.306 35.044 56.994 36.404 C 53.435 34.699 49.881 33.569 46.396 33.046 C 49.101 30.898 52.616 27.227 53.336 22.241 C 53.453 21.423 52.887 20.665 52.07 20.548 C 51.246 20.424 50.495 20.996 50.377 21.813 C 49.421 28.44 41.827 32.553 41.75 32.594 C 41.686 32.628 41.63 32.671 41.573 32.711 C 19.509 32.945 3.301 53.229 2.619 54.097 C 2.595 54.127 2.58 54.16 2.559 54.191 C 2.529 54.236 2.498 54.28 2.473 54.327 C 2.449 54.371 2.432 54.417 2.414 54.463 C 2.397 54.506 2.379 54.549 2.365 54.593 C 2.35 54.643 2.341 54.693 2.332 54.745 C 2.324 54.789 2.314 54.832 2.31 54.876 C 2.305 54.926 2.306 54.974 2.306 55.024 C 2.306 55.071 2.305 55.118 2.309 55.164 C 2.314 55.21 2.324 55.256 2.333 55.303 C 2.342 55.351 2.35 55.4 2.364 55.447 C 2.378 55.493 2.397 55.538 2.416 55.584 C 2.434 55.627 2.45 55.671 2.472 55.713 C 2.498 55.763 2.532 55.809 2.564 55.857 C 2.583 55.885 2.597 55.916 2.619 55.943 C 3.305 56.817 19.693 77.337 41.952 77.337 C 45.751 77.337 49.67 76.567 53.62 75.079 C 55.019 75.605 59.358 77.507 60.664 81.29 C 60.878 81.909 61.457 82.297 62.077 82.297 C 62.238 82.297 62.402 82.271 62.564 82.216 C 63.344 81.946 63.759 81.096 63.49 80.315 C 62.325 76.939 59.525 74.765 57.272 73.5 C 59.81 72.262 62.35 70.737 64.867 68.924 C 66.689 69.57 74.801 72.787 77.175 79.641 C 77.388 80.26 77.967 80.647 78.587 80.647 C 78.749 80.647 78.914 80.621 79.075 80.564 C 79.856 80.294 80.269 79.443 79.999 78.664 C 77.681 71.969 71.138 68.326 67.637 66.804 C 67.727 66.732 67.818 66.664 67.908 66.59 C 70.106 64.79 72.003 63.005 73.565 61.417 C 74.327 61.618 83.804 64.241 86.787 71.504 C 87.024 72.082 87.582 72.431 88.171 72.431 C 88.359 72.431 88.553 72.395 88.737 72.32 C 89.501 72.007 89.866 71.133 89.552 70.37 C 86.679 63.374 79.182 60.124 75.849 58.99 C 76.99 57.718 77.78 56.743 78.161 56.259 C 81.112 55.28 93.339 50.65 97.261 39.87 C 97.544 39.094 97.143 38.236 96.368 37.954 Z M 41.952 74.35 C 23.753 74.35 9.197 58.985 5.747 55.02 C 9.194 51.053 23.727 35.691 41.952 35.691 C 58.33 35.691 72.085 51.106 75.314 55.021 C 72.085 58.936 58.331 74.35 41.952 74.35 Z " fill="rgb(255,85,0)"></path> </g> </g> </svg> 