<?xml version="1.0" encoding="UTF-8" standalone="no"?> <!-- Generator: Gravit.io --> <svg xmlns="http://www.w3.org/2000/svg" xmlns:xlink="http://www.w3.org/1999/xlink" style="isolation:isolate" viewBox="0 0 100 100" width="100" height="100"> <defs> <clipPath id="_clipPath_ZXFO2oVCiLrWfpF7Oi48UUNkg95kUMbC"> <rect width="100" height="100"></rect> </clipPath> </defs> <g clip-path="url(#_clipPath_ZXFO2oVCiLrWfpF7Oi48UUNkg95kUMbC)"> <path d=" M 67 22.35 C 69.245 22.374 71.394 23.262 73 24.83 C 74.637 26.401 75.577 28.562 75.61 30.83 C 75.669 31.704 76.348 32.409 77.22 32.5 L 77.22 32.5 C 77.62 32.503 78.004 32.346 78.287 32.064 C 78.571 31.783 78.73 31.4 78.73 31 C 78.589 26.427 82.159 22.594 86.73 22.41 L 87 22.41 C 87.828 22.41 88.5 21.738 88.5 20.91 C 88.5 20.082 87.828 19.41 87 19.41 L 86.9 19.41 C 84.765 19.407 82.722 18.537 81.24 17 C 79.806 15.532 78.944 13.598 78.81 11.55 C 78.81 11.43 78.81 11.31 78.81 11.18 C 78.808 11.034 78.784 10.889 78.74 10.75 C 78.619 10.035 78.005 9.509 77.28 9.5 L 77.28 9.5 C 76.452 9.5 75.78 10.172 75.78 11 C 75.78 11.18 75.78 11.36 75.78 11.55 C 75.441 16.011 71.673 19.428 67.2 19.33 L 67 19.33 C 66.602 19.335 66.223 19.498 65.945 19.783 C 65.668 20.069 65.515 20.452 65.52 20.85 C 65.53 21.666 66.184 22.329 67 22.35 Z M 77.31 16.7 C 77.8 17.571 78.402 18.375 79.1 19.09 C 79.786 19.784 80.559 20.386 81.4 20.88 C 79.595 21.943 78.117 23.483 77.13 25.33 C 76.589 24.361 75.916 23.473 75.13 22.69 C 74.426 22.033 73.643 21.465 72.8 21 C 74.671 20.009 76.231 18.521 77.31 16.7 Z " fill="rgb(255,85,0)"></path> <path d=" M 53.41 66 C 44.03 65.669 36.693 57.798 37.02 48.418 C 37.348 39.037 45.216 31.697 54.596 32.021 C 63.977 32.344 71.32 40.209 71 49.59 C 70.987 49.988 71.132 50.375 71.404 50.666 C 71.676 50.956 72.052 51.127 72.45 51.14 C 72.848 51.159 73.236 51.017 73.528 50.746 C 73.819 50.475 73.99 50.098 74 49.7 C 74.38 38.663 65.741 29.407 54.704 29.024 C 43.667 28.642 34.409 37.278 34.024 48.315 C 33.639 59.352 42.273 68.612 53.31 69 L 53.36 69 C 54.188 69.014 54.871 68.353 54.885 67.525 C 54.899 66.697 54.238 66.014 53.41 66 L 53.41 66 Z " fill="rgb(255,85,0)"></path> <path d=" M 24 31 C 29.523 31 34 26.523 34 21 C 34 15.477 29.523 11 24 11 C 18.477 11 14 15.477 14 21 C 14 26.523 18.477 31 24 31 Z M 24 14 C 27.866 14 31 17.134 31 21 C 31 24.866 27.866 28 24 28 C 20.134 28 17 24.866 17 21 C 17 17.134 20.134 14 24 14 Z " fill="rgb(255,85,0)"></path> <path d=" M 75.08 55 C 65.967 54.682 58.323 61.812 58.005 70.925 C 57.687 80.038 64.817 87.682 73.93 88 L 74.51 88 C 83.623 88.157 91.138 80.898 91.295 71.785 C 91.452 62.672 84.193 55.157 75.08 55 L 75.08 55 Z M 83.71 81.36 C 79.288 85.495 72.654 86.181 67.479 83.038 C 62.305 79.894 59.856 73.69 61.489 67.86 C 63.121 62.03 68.436 57.999 74.49 58 L 75 58 C 80.46 58.187 85.269 61.646 87.183 66.763 C 89.096 71.88 87.737 77.646 83.74 81.37 L 83.71 81.36 Z " fill="rgb(255,85,0)"></path> <path d=" M 18 46 C 10.82 46 5 51.82 5 59 C 5 66.18 10.82 72 18 72 C 25.18 72 31 66.18 31 59 C 31 51.82 25.18 46 18 46 Z M 18 69 C 12.477 69 8 64.523 8 59 C 8 53.477 12.477 49 18 49 C 23.523 49 28 53.477 28 59 C 28 64.523 23.523 69 18 69 Z " fill="rgb(255,85,0)"></path> <path d=" M 46.5 82.42 L 46.42 82.42 C 44.962 82.416 43.564 81.838 42.53 80.81 C 41.475 79.769 40.839 78.378 40.74 76.9 C 40.74 76.81 40.74 76.72 40.74 76.63 C 40.709 75.781 40.056 75.084 39.21 75 L 39.21 75 C 38.385 75.011 37.724 75.685 37.73 76.51 C 37.73 76.65 37.73 76.78 37.73 76.91 C 37.61 80.25 34.54 82.35 31.67 82.38 L 31.48 82.38 C 31.082 82.385 30.703 82.548 30.425 82.833 C 30.148 83.119 29.995 83.502 30 83.9 C 30.003 84.299 30.165 84.68 30.451 84.958 C 30.736 85.236 31.121 85.388 31.52 85.38 C 33.106 85.378 34.626 86.012 35.74 87.14 C 36.896 88.247 37.562 89.77 37.59 91.37 C 37.632 92.233 38.309 92.931 39.17 93 L 39.17 93 C 39.995 92.989 40.656 92.315 40.65 91.49 C 40.549 88.257 43.078 85.549 46.31 85.43 L 46.5 85.43 C 47.328 85.43 48 84.758 48 83.93 C 48 83.102 47.328 82.43 46.5 82.43 L 46.5 82.42 Z M 39.09 86.51 C 38.727 85.964 38.308 85.458 37.84 85 C 37.45 84.631 37.028 84.296 36.58 84 C 37.623 83.362 38.524 82.518 39.23 81.52 C 39.577 82.054 39.979 82.551 40.43 83 C 40.79 83.367 41.182 83.701 41.6 84 C 40.603 84.663 39.749 85.52 39.09 86.52 L 39.09 86.51 Z " fill="rgb(255,85,0)"></path> <path d=" M 54.55 36 C 47.86 35.76 42.25 41.35 42 48.44 C 41.984 48.84 42.128 49.229 42.4 49.522 C 42.672 49.815 43.05 49.987 43.45 50 L 43.5 50 C 44.309 50 44.973 49.359 45 48.55 C 45.19 43.11 49.43 38.88 54.45 39 C 54.848 39.019 55.236 38.877 55.528 38.606 C 55.819 38.335 55.99 37.958 56 37.56 C 56.016 37.16 55.872 36.771 55.6 36.478 C 55.328 36.185 54.95 36.013 54.55 36 Z " fill="rgb(255,85,0)"></path> <path d=" M 74.05 60.5 C 68.809 60.478 64.539 64.699 64.5 69.94 C 64.487 70.338 64.632 70.725 64.904 71.016 C 65.176 71.306 65.552 71.477 65.95 71.49 L 66 71.49 C 66.809 71.49 67.473 70.849 67.5 70.04 C 67.5 66.461 70.372 63.545 73.95 63.49 C 74.35 63.512 74.742 63.369 75.034 63.096 C 75.327 62.822 75.495 62.441 75.5 62.04 C 75.522 61.215 74.875 60.527 74.05 60.5 Z " fill="rgb(255,85,0)"></path> <path d=" M 16.5 51.5 C 12.92 51.5 10 54.86 10 59 C 10 59.828 10.672 60.5 11.5 60.5 C 12.328 60.5 13 59.828 13 59 C 13 56.52 14.57 54.5 16.5 54.5 C 17.328 54.5 18 53.828 18 53 C 18 52.172 17.328 51.5 16.5 51.5 Z " fill="rgb(255,85,0)"></path> </g> </svg> 