<?xml version="1.0" encoding="UTF-8" standalone="no"?> <!-- Generator: Gravit.io --> <svg xmlns="http://www.w3.org/2000/svg" xmlns:xlink="http://www.w3.org/1999/xlink" style="isolation:isolate" viewBox="0 0 100 100" width="100" height="100"> <defs> <clipPath id="_clipPath_x1uO3Nv5HQ8u68fM2EWy2fDLgMxJ3Nmr"> <rect width="100" height="100"></rect> </clipPath> </defs> <g clip-path="url(#_clipPath_x1uO3Nv5HQ8u68fM2EWy2fDLgMxJ3Nmr)"> <path d=" M 33.342 42.914 L 24.323 42.914 C 23.497 42.914 22.828 43.582 22.828 44.408 L 22.828 53.421 C 22.828 54.248 23.497 54.916 24.323 54.916 L 33.342 54.916 C 34.168 54.916 34.837 54.248 34.837 53.421 L 34.837 44.408 C 34.837 43.583 34.167 42.914 33.342 42.914 Z M 31.848 51.928 L 25.818 51.928 L 25.818 45.904 L 31.848 45.904 L 31.848 51.928 Z " fill="rgb(255,85,0)"></path> <path d=" M 54.379 42.914 L 45.357 42.914 C 44.531 42.914 43.862 43.582 43.862 44.408 L 43.862 53.421 C 43.862 54.248 44.531 54.916 45.357 54.916 L 54.379 54.916 C 55.205 54.916 55.874 54.248 55.874 53.421 L 55.874 44.408 C 55.874 43.583 55.205 42.914 54.379 42.914 Z M 52.884 51.928 L 46.852 51.928 L 46.852 45.904 L 52.884 45.904 L 52.884 51.928 Z " fill="rgb(255,85,0)"></path> <path d=" M 33.342 63.453 L 24.323 63.453 C 23.497 63.453 22.828 64.123 22.828 64.948 L 22.828 73.967 C 22.828 74.793 23.497 75.462 24.323 75.462 L 33.342 75.462 C 34.168 75.462 34.837 74.793 34.837 73.967 L 34.837 64.948 C 34.837 64.123 34.167 63.453 33.342 63.453 Z M 31.848 72.472 L 25.818 72.472 L 25.818 66.442 L 31.848 66.442 L 31.848 72.472 Z " fill="rgb(255,85,0)"></path> <path d=" M 54.379 63.453 L 45.357 63.453 C 44.531 63.453 43.862 64.123 43.862 64.948 L 43.862 73.967 C 43.862 74.793 44.531 75.462 45.357 75.462 L 54.379 75.462 C 55.205 75.462 55.874 74.793 55.874 73.967 L 55.874 64.948 C 55.874 64.123 55.205 63.453 54.379 63.453 Z M 52.884 72.472 L 46.852 72.472 L 46.852 66.442 L 52.884 66.442 L 52.884 72.472 Z " fill="rgb(255,85,0)"></path> <path d=" M 74.76 63.453 L 65.745 63.453 C 64.919 63.453 64.25 64.123 64.25 64.948 L 64.25 73.967 C 64.25 74.793 64.919 75.462 65.745 75.462 L 74.76 75.462 C 75.586 75.462 76.255 74.793 76.255 73.967 L 76.255 64.948 C 76.255 64.123 75.585 63.453 74.76 63.453 Z M 73.265 72.472 L 67.24 72.472 L 67.24 66.442 L 73.265 66.442 L 73.265 72.472 Z " fill="rgb(255,85,0)"></path> <path d=" M 85.737 16.075 L 76.658 16.075 L 76.658 14.342 C 76.658 11.263 74.154 8.758 71.077 8.758 C 67.998 8.758 65.493 11.263 65.493 14.342 L 65.493 16.075 L 55.396 16.075 L 55.396 14.342 C 55.396 11.263 52.892 8.758 49.815 8.758 C 46.734 8.758 44.228 11.263 44.228 14.342 L 44.228 16.075 L 34.135 16.075 L 34.135 14.342 C 34.135 11.263 31.631 8.758 28.553 8.758 C 25.472 8.758 22.966 11.263 22.966 14.342 L 22.966 16.075 L 13.913 16.075 C 13.087 16.075 12.418 16.744 12.418 17.57 L 12.418 89.396 C 12.418 90.222 13.087 90.891 13.913 90.891 L 85.739 90.891 C 86.565 90.891 87.234 90.222 87.234 89.396 L 87.234 17.57 C 87.232 16.744 86.563 16.075 85.737 16.075 Z M 68.481 14.342 C 68.481 12.91 69.645 11.748 71.076 11.748 C 72.505 11.748 73.668 12.911 73.668 14.342 L 73.668 21.991 C 73.668 23.422 72.505 24.586 71.076 24.586 C 69.645 24.586 68.481 23.422 68.481 21.991 L 68.481 14.342 Z M 49.814 11.747 C 51.243 11.747 52.406 12.91 52.406 14.341 L 52.406 21.99 C 52.406 23.421 51.243 24.585 49.814 24.585 C 48.381 24.585 47.216 23.421 47.216 21.99 L 47.216 17.733 C 47.222 17.679 47.233 17.626 47.233 17.569 C 47.233 17.512 47.222 17.459 47.216 17.405 L 47.216 14.341 C 47.216 12.91 48.382 11.747 49.814 11.747 Z M 25.954 14.342 C 25.954 12.91 27.12 11.748 28.552 11.748 C 29.981 11.748 31.144 12.911 31.144 14.342 L 31.144 21.991 C 31.144 23.422 29.981 24.586 28.552 24.586 C 27.119 24.586 25.954 23.422 25.954 21.991 L 25.954 14.342 Z M 84.243 87.901 L 15.406 87.901 L 15.406 19.064 L 22.964 19.064 L 22.964 21.99 C 22.964 25.07 25.471 27.575 28.551 27.575 C 31.628 27.575 34.133 25.07 34.133 21.99 L 34.133 19.064 L 44.226 19.064 L 44.226 21.99 C 44.226 25.07 46.733 27.575 49.813 27.575 C 52.89 27.575 55.394 25.07 55.394 21.99 L 55.394 19.064 L 65.491 19.064 L 65.491 21.99 C 65.491 25.07 67.996 27.575 71.075 27.575 C 74.152 27.575 76.656 25.07 76.656 21.99 L 76.656 19.064 L 84.241 19.064 L 84.241 87.901 L 84.243 87.901 Z " fill="rgb(255,85,0)"></path> <path d=" M 76.413 38.593 L 68.786 47.994 L 65.604 44.956 C 65.008 44.386 64.062 44.408 63.491 45.005 C 62.921 45.603 62.943 46.549 63.54 47.119 L 67.893 51.275 C 68.172 51.541 68.542 51.689 68.926 51.689 C 68.958 51.689 68.988 51.688 69.02 51.686 C 69.437 51.66 69.824 51.459 70.087 51.135 L 78.735 40.477 C 79.255 39.836 79.157 38.895 78.516 38.375 C 77.875 37.853 76.933 37.952 76.413 38.593 Z " fill="rgb(255,85,0)"></path> </g> </svg> 